<svg id="visual" viewBox="0 0 900 600" width="900" height="600" xmlns="http://www.w3.org/2000/svg" xmlns:xlink="http://www.w3.org/1999/xlink" version="1.1"><rect x="0" y="0" width="900" height="600" fill="#0b2447"></rect><defs><linearGradient id="grad1_0" x1="33.3%" y1="100%" x2="100%" y2="0%"><stop offset="20%" stop-color="#0b2447" stop-opacity="1"></stop><stop offset="80%" stop-color="#0b2447" stop-opacity="1"></stop></linearGradient></defs><defs><linearGradient id="grad2_0" x1="0%" y1="100%" x2="66.7%" y2="0%"><stop offset="20%" stop-color="#0b2447" stop-opacity="1"></stop><stop offset="80%" stop-color="#0b2447" stop-opacity="1"></stop></linearGradient></defs><g transform="translate(900, 600)"><path d="M-270.4 0C-258.5 -13.9 -246.5 -27.9 -244.2 -43.1C-241.9 -58.3 -249.3 -74.8 -250 -91C-250.6 -107.2 -244.6 -123.1 -234.2 -135.2C-223.8 -147.3 -209 -155.6 -197.6 -165.8C-186.3 -176.1 -178.3 -188.4 -169.1 -201.5C-159.8 -214.5 -149.1 -228.4 -134 -232.1C-118.9 -235.8 -99.3 -229.4 -83.8 -230.2C-68.3 -231.1 -56.9 -239.3 -43.6 -247.2C-30.3 -255.1 -15.2 -262.8 0 -270.4L0 0Z" fill="#a5d7e8"></path></g><g transform="translate(0, 0)"><path d="M270.4 0C261.4 14.2 252.4 28.4 251.1 44.3C249.9 60.1 256.5 77.6 251.8 91.7C247.2 105.7 231.4 116.4 219.1 126.5C206.8 136.6 198 146.1 192.3 161.3C186.6 176.6 184 197.5 171.6 204.5C159.3 211.6 137.1 204.8 123.5 213.9C109.9 223 104.9 248 92.5 254.1C80.1 260.3 60.2 247.6 43.6 247.2C26.9 246.8 13.5 258.6 0 270.4L0 0Z" fill="#a5d7e8"></path></g></svg>